# xmcd
#
# Track frame offsets: 
#        150
#        12765
#        22847
#        35632
#        46483
#        57330
#        69915
#        80286
#        91668
#        105335
#        117865
#        128745
#        138164
#        149855
#        161554
#        171440
#        181248
#        191809
#        205432
#        214659
#
# Disc length: 3055 seconds
#
# Revision: 0
# Processed by: cddbd v1.5.2PL0 Copyright (c) Steve Scherf et al.
# Submitted via: ExactAudioCopy v1.3
#
DISCID=140bed14
DTITLE=Porter Wagoner - 20 Of The Best Of Porter Wagoner
DYEAR=1982
DGENRE=Country
TTITLE0=A Satisfied Mind
TTITLE1=Your Old Love Letters
TTITLE2=The Carroll County Accident
TTITLE3=Eat, Drink And Be Merry (Tomorrow You'll Cry)
TTITLE4=I'll Go Down Swinging
TTITLE5=Company's Comin'
TTITLE6=Big Wind
TTITLE7=Cold Dark Waters Below
TTITLE8=Skid Row Joe
TTITLE9=What Would You Do
TTITLE10=Green, Green Grass Of Home
TTITLE11=Everything I've Always Wanted
TTITLE12=I Just Came To Smell The Flowers
TTITLE13=Misery Loves Company
TTITLE14=Ole Slew Foot
TTITLE15=What Ain't To Be, Just Might Happen
TTITLE16=I've Enjoyed As Much Of This As I Can Stand
TTITLE17=When Lea Jane Sang
TTITLE18=Sorrow On The Rocks
TTITLE19=The Cold Hard Facts Of Life
EXTD=
EXTT0=
EXTT1=
EXTT2=
EXTT3=
EXTT4=
EXTT5=
EXTT6=
EXTT7=
EXTT8=
EXTT9=
EXTT10=
EXTT11=
EXTT12=
EXTT13=
EXTT14=
EXTT15=
EXTT16=
EXTT17=
EXTT18=
EXTT19=
PLAYORDER=
